<?xml version="1.0" encoding="iso-8859-1"?>
<!-- Generator: Adobe Illustrator 28.7.1, SVG Export Plug-In . SVG Version: 9.03 Build 54978)  -->
<svg version="1.1" id="Layer_1" xmlns="http://www.w3.org/2000/svg" xmlns:xlink="http://www.w3.org/1999/xlink" x="0px" y="0px"
	 viewBox="0 0 256 256" style="enable-background:new 0 0 256 256;" xml:space="preserve">
<g>
	<path d="M44.912,255.875c-24.696,0-44.787-20.092-44.787-44.787V44.912c0-24.696,20.091-44.787,44.787-44.787h166.176
		c24.695,0,44.787,20.091,44.787,44.787v166.176c0,24.695-20.092,44.787-44.787,44.787H44.912z"/>
	<path d="M211.088,0.25c24.627,0,44.662,20.035,44.662,44.662v166.175c0,24.627-20.035,44.662-44.662,44.662H44.912
		c-24.627,0-44.662-20.035-44.662-44.662V44.912C0.25,20.285,20.285,0.25,44.912,0.25H211.088 M211.088,0H44.912
		C20.108,0,0,20.108,0,44.912v166.175C0,235.892,20.108,256,44.912,256h166.175C235.892,256,256,235.892,256,211.088V44.912
		C256,20.108,235.892,0,211.088,0L211.088,0z"/>
</g>
<g>
	<path style="fill:#FFFFFF;" d="M193.425,28.444c18.82,0,34.131,15.311,34.131,34.131v130.848c0,18.821-15.311,34.132-34.131,34.132
		H62.575c-18.82,0-34.131-15.311-34.131-34.131V62.575c0-18.82,15.311-34.131,34.131-34.131H193.425 M193.425,16H62.575
		C36.853,16,16,36.853,16,62.575v130.848C16,219.147,36.853,240,62.575,240h130.848C219.147,240,240,219.147,240,193.425V62.575
		C240,36.853,219.147,16,193.425,16L193.425,16z"/>
</g>
<g style="display:none;">
	<path style="display:inline;fill:none;stroke:#FFFFFF;stroke-width:2;stroke-miterlimit:10;" d="M110.845,171l-9.082-30H67.91
		l-9.082,30H45.883L76.961,71h15.884l32.045,100H110.845z M70.503,131h28.531L84.836,84h-0.137L70.503,131z"/>
	<path style="display:inline;fill:none;stroke:#FFFFFF;stroke-width:2;stroke-miterlimit:10;" d="M193.977,171l-29.002-46.64
		L155,138.242V171h-14V71h13v50.611L191.915,71h14.157l-32.988,42.364L208.821,171H193.977z"/>
</g>
<g>
	<path style="fill:#FFFFFF;" d="M111.83,188.816l-11.088-36.624H59.415l-11.088,36.624H32.703l37.8-121.632h19.319l38.977,121.632
		H111.83z M62.606,139.424h34.776L80.079,82.136h-0.168L62.606,139.424z"/>
	<path style="fill:#FFFFFF;" d="M205.153,188.816l-35.447-56.952l-13.271,16.968v39.984h-15.457V67.184h15.457v61.32l46.199-61.32
		h17.305l-40.32,51.24l43.68,70.392H205.153z"/>
</g>
</svg>
